# xmcd
# 
# Track frame offsets:
#	150
#	13800
#	26925
#	38962
#	52912
#	65512
#	83175
#	96450
#	108937
#	121800
#	131850
#	144225
#	157650
#	171150
#	187275
#	202300
#
# Disc length: 2969 seconds
#
# Revision: 1
# Processed by: cddbd v1.4PL0 Copyright (c) Steve Scherf et al.
# Submitted via: Audio-CD-Archiv 2.10.441
#
DISCID=e70b9710
DTITLE=Various Artist - Fang doch den Morgen mit Country Musik an
DYEAR=1900
DGENRE=country
TTITLE0=Fang doch den Morgen mal mit Country Musik an - Ralf Paulsen
TTITLE1=Hillibilly Joe - Tanja May
TTITLE2=You Can't Win Without (Having) Lost - Tom Astor
TTITLE3=Tom Dooley - Tom Astor
TTITLE4=Mr. Unbekannt - Greyhounds
TTITLE5=Mensch Meyer - Country Clowns
TTITLE6=Helfen and Gewinnen - Kerstin
TTITLE7=Ich fahr zum Nürburgring - Kerstin
TTITLE8=Frei sein.. - How-Company
TTITLE9=Meine Arche Noah - How-Company
TTITLE10=Was willst du denn im wilden Westen - Tanja May
TTITLE11=In unserem Country-Club - Greyhounds
TTITLE12=Down The Road I Go - Flophouse String Band
TTITLE13=Take It Easy - Flophouse String Band
TTITLE14=Kohlenpott Cowboy - Flophouse String Band
TTITLE15=Kneipensong - Black Jack
EXTD=
EXTT0=
EXTT1=
EXTT2=
EXTT3=
EXTT4=
EXTT5=
EXTT6=
EXTT7=
EXTT8=
EXTT9=
EXTT10=
EXTT11=
EXTT12=
EXTT13=
EXTT14=
EXTT15=
PLAYORDER=
